# xmcd
#
# Track frame offsets: 
#        150
#        12308
#        24650
#        35518
#        47878
#        56073
#        66873
#        77553
#        85903
#        97148
#        109526
#        119059
#        131309
#        142172
#        155964
#        167497
#        182324
#        192719
#        204816
#        218066
#        232258
#        245016
#        254716
#        264541
#        272873
#        285173
#        297563
#        308433
#        318997
#        329127
#        339257
#
# Disc length: 4779 seconds
#
# Revision: 0
# Processed by: cddbd v1.5.2PL0 Copyright (c) Steve Scherf et al.
# Submitted via: ExactAudioCopyFreeDBPlugin 1.0
#
DISCID=dd12a91f
DTITLE=Chuck Berry - Best of
DYEAR=1900
DGENRE=Rock and Roll
TTITLE0=Johnyy B. Goode
TTITLE1=You never can tell
TTITLE2=Roll over Beethoven
TTITLE3=No particular place to go
TTITLE4=Let it rock
TTITLE5=Sweet little rock and roller
TTITLE6=Maybellene
TTITLE7=Come on
TTITLE8=Back in the USA
TTITLE9=Run Rudolph run
TTITLE10=Bye bye Johnny
TTITLE11=School day
TTITLE12=Thirty days
TTITLE13=Sweet little sixteen
TTITLE14=Rock and roll music
TTITLE15=Reelin' and rockin'
TTITLE16=Brown eyed handsome man
TTITLE17=Around and around
TTITLE18=Too much monkey bussines
TTITLE19=Havana moon
TTITLE20=Carol
TTITLE21=You came a long way from St. Louis (with the Five Demensions)
TTITLE22=Beautiful Delilah
TTITLE23=I'm talking about you
TTITLE24=Little queenie
TTITLE25=You can't catch me
TTITLE26=Promised land
TTITLE27=Almost grown
TTITLE28=I want to be you driver
TTITLE29=Memphis, Tennessee
TTITLE30=My ding-a-ling (live)
EXTD=
EXTT0=
EXTT1=
EXTT2=
EXTT3=
EXTT4=
EXTT5=
EXTT6=
EXTT7=
EXTT8=
EXTT9=
EXTT10=
EXTT11=
EXTT12=
EXTT13=
EXTT14=
EXTT15=
EXTT16=
EXTT17=
EXTT18=
EXTT19=
EXTT20=
EXTT21=
EXTT22=
EXTT23=
EXTT24=
EXTT25=
EXTT26=
EXTT27=
EXTT28=
EXTT29=
EXTT30=
PLAYORDER=
